<?xml version="1.0" standalone="no"?>
<!DOCTYPE svg PUBLIC "-//W3C//DTD SVG 20010904//EN"
 "http://www.w3.org/TR/2001/REC-SVG-20010904/DTD/svg10.dtd">
<svg version="1.0" xmlns="http://www.w3.org/2000/svg"
 width="225.000000pt" height="225.000000pt" viewBox="0 0 225.000000 225.000000"
 preserveAspectRatio="xMidYMid meet">

<g transform="translate(0.000000,225.000000) scale(0.100000,-0.100000)"
fill="#000000" stroke="none">
<path d="M959 1752 c-103 -35 -181 -105 -218 -200 -22 -54 -17 -152 11 -214
44 -95 86 -129 356 -284 161 -93 230 -153 250 -221 16 -54 15 -81 -7 -128 -57
-126 -231 -170 -386 -96 -105 49 -157 119 -191 255 -9 36 -20 66 -25 66 -5 0
-9 -94 -9 -210 0 -115 4 -210 8 -210 5 0 15 15 23 32 17 40 49 46 117 24 141
-47 233 -60 326 -47 125 18 236 94 286 196 35 74 34 180 -2 255 -40 82 -85
118 -288 236 -248 143 -297 179 -331 246 -66 129 63 271 233 255 133 -12 236
-98 281 -236 15 -44 27 -87 27 -96 0 -8 5 -15 10 -15 6 0 10 75 10 205 0 113
-3 205 -7 205 -5 0 -16 -14 -25 -30 -10 -17 -24 -33 -33 -36 -8 -3 -59 8 -112
26 -125 41 -225 48 -304 22z"/>
<path d="M40 1736 c0 -9 18 -15 54 -19 61 -6 90 -21 105 -54 7 -16 11 -191 11
-528 l0 -505 -28 -31 c-24 -27 -37 -33 -85 -37 -39 -3 -57 -9 -57 -18 0 -12
46 -14 260 -14 224 0 260 2 260 15 0 11 -11 15 -35 15 -48 0 -100 23 -119 53
-15 22 -16 80 -14 536 l3 513 33 29 c26 24 41 29 82 29 38 0 50 4 50 15 0 13
-36 15 -260 15 -213 0 -260 -2 -260 -14z"/>
<path d="M1672 1738 c3 -7 28 -16 56 -19 61 -8 99 -30 112 -65 6 -15 10 -226
10 -510 0 -542 0 -543 -64 -569 -20 -8 -54 -15 -77 -15 -28 0 -39 -4 -37 -12
7 -20 528 -24 528 -5 0 10 -18 16 -54 20 -65 7 -101 28 -115 69 -15 42 -15
958 0 1011 13 49 57 77 122 77 35 0 47 4 47 15 0 13 -36 15 -266 15 -208 0
-265 -3 -262 -12z"/>
</g>
</svg>
